<svg xmlns="http://www.w3.org/2000/svg" viewBox="0 0 24 30" x="0px" y="0px"><title>cta, call to action, buy button, business and finance, action</title><g data-name="Layer 2"><path d="M20.75,12.67v-5A2.25,2.25,0,0,0,18.5,5.42H5.5A2.25,2.25,0,0,0,3.25,7.67v5A2.25,2.25,0,0,0,5.5,14.92h6.21l.19,1.64a.75.75,0,0,0,.49.62.73.73,0,0,0,.78-.18l1.24-1.23,2.3,2.29a1.75,1.75,0,0,0,2.47,0l.71-.7a1.76,1.76,0,0,0,0-2.48l-.27-.27A2.25,2.25,0,0,0,20.75,12.67ZM18.83,16.3l-.71.7a.24.24,0,0,1-.35,0l-2.83-2.83a.75.75,0,0,0-1.06,0l-.67.67L12.78,11l3.88.43-.66.66a.75.75,0,0,0,0,1.06l1.59,1.59h0l1.24,1.23A.25.25,0,0,1,18.83,16.3Zm-1.24-3.72,1.24-1.23a.78.78,0,0,0,.18-.78.75.75,0,0,0-.63-.5L12,9.36a.78.78,0,0,0-.62.22.72.72,0,0,0-.21.61l.36,3.23H5.5a.75.75,0,0,1-.75-.75v-5a.76.76,0,0,1,.75-.75h13a.76.76,0,0,1,.75.75v5a.75.75,0,0,1-.75.75h-.07Z"/></g><text x="0" y="39" fill="#000000" font-size="5px" font-weight="bold" font-family="'Helvetica Neue', Helvetica, Arial-Unicode, Arial, Sans-serif">Created by Dwi ridwanto</text><text x="0" y="44" fill="#000000" font-size="5px" font-weight="bold" font-family="'Helvetica Neue', Helvetica, Arial-Unicode, Arial, Sans-serif">from the Noun Project</text></svg>